Coordinates
version=1
nRows=7
nColumns=40
inDegrees=yes

Units are S.I. units (second, meters, Newtons, ...)
Angles are in degrees.

endheader
time	pelvis_tilt	pelvis_list	pelvis_rotation	pelvis_tx	pelvis_ty	pelvis_tz	hip_flexion_r	hip_adduction_r	hip_rotation_r	knee_angle_r	knee_angle_r_beta	ankle_angle_r	subtalar_angle_r	mtp_angle_r	hip_flexion_l	hip_adduction_l	hip_rotation_l	knee_angle_l	knee_angle_l_beta	ankle_angle_l	subtalar_angle_l	mtp_angle_l	lumbar_extension	lumbar_bending	lumbar_rotation	arm_flex_r	arm_add_r	arm_rot_r	elbow_flex_r	pro_sup_r	wrist_flex_r	wrist_dev_r	arm_flex_l	arm_add_l	arm_rot_l	elbow_flex_l	pro_sup_l	wrist_flex_l	wrist_dev_l
      8.08500000	     -4.20961911	     -3.37218354	     -1.34756267	      0.92545162	      0.92448927	      0.44701079	     27.83993837	     -1.40773811	    -14.44071178	     13.22877662	     13.22877662	      1.24387309	      4.71191486	      9.06540540	      0.75449331	     -2.83551602	    -11.72738667	     12.86506358	     12.86506358	     17.23534209	     -7.18292520	     -4.99962569	     -9.53025320	      5.41268588	      2.47052148	    -15.80546804	    -14.47204353	    -14.67532907	     21.93473937	     47.67012616	      0.00000000	      0.00000000	     18.00868202	    -14.84758405	     -6.56389331	     84.00037770	     47.32510838	      0.00000000	      0.00000000
      8.09721429	     -4.14329412	     -3.44921266	     -1.40508054	      0.92705732	      0.92314290	      0.44883271	     27.26908170	     -1.07705196	    -15.04877216	     12.83573652	     12.83573652	      1.26114634	      5.26129714	      8.71662980	     -0.01846283	     -3.01274001	    -11.83021052	     12.80706493	     12.80706493	     18.00329330	     -6.91071709	     -4.36113203	     -9.43464882	      5.52659289	      2.29953133	    -15.83849785	    -14.44189047	    -14.93627676	     22.17392455	     47.65738340	      0.00000000	      0.00000000	     17.34833097	    -14.98954957	     -6.72587448	     85.86028651	     47.40184224	      0.00000000	      0.00000000
      8.10942857	     -4.09684251	     -3.55611851	     -1.43374570	      0.92877403	      0.92173706	      0.45086687	     26.70932855	     -0.68450286	    -15.18887310	     12.71637924	     12.71637924	      0.69203622	      4.90233798	      6.64090588	     -0.62330757	     -3.28689117	    -11.93163539	     13.07409730	     13.07409730	     19.13115745	     -6.51352871	     -3.06957431	     -9.26051343	      5.65348189	      2.04377785	    -15.55424345	    -14.36697931	    -15.18627486	     21.90865095	     47.64759638	      0.00000000	      0.00000000	     16.76975630	    -15.04969848	     -7.24291062	     86.97818106	     47.52312591	      0.00000000	      0.00000000
      8.12164286	     -4.09702110	     -3.73249113	     -1.46629980	      0.93061463	      0.92040158	      0.45300129	     26.31021742	     -0.30963052	    -15.35543230	     13.12505112	     13.12505112	      0.81497608	      4.68105574	      6.37688531	     -1.25096369	     -3.60887700	    -11.85578621	     13.14682613	     13.14682613	     19.53283489	     -6.64690760	     -3.08928782	     -8.98761336	      5.89506735	      2.15899140	    -15.46425920	    -14.18289962	    -15.17097135	     21.89682081	     47.64482667	      0.00000000	      0.00000000	     16.55064589	    -14.90647813	     -7.19058167	     87.03261137	     47.52262312	      0.00000000	      0.00000000
      8.13385714	     -4.00095871	     -3.93020197	     -1.50419102	      0.93263735	      0.91929981	      0.45527666	     25.86138123	      0.05785130	    -15.39035381	     13.81264033	     13.81264033	      0.95219469	      4.32184262	      5.89490888	     -1.93354785	     -3.97561170	    -11.79707673	     13.34345027	     13.34345027	     19.93699424	     -6.81593038	     -3.02114523	     -8.83476684	      6.16098431	      2.31565874	    -15.20727810	    -14.00149681	    -15.15305550	     21.92093095	     47.64197015	      0.00000000	      0.00000000	     16.23511255	    -14.71322139	     -7.10607930	     87.11773542	     47.52027005	      0.00000000	      0.00000000
      8.14607143	     -3.88309321	     -3.92968418	     -1.51444502	      0.93470120	      0.91814301	      0.45771942	     25.37869472	      0.33662725	    -14.66990387	     14.35434872	     14.35434872	     -0.83323444	      2.43401178	     -0.33532383	     -2.33655334	     -4.24861780	    -11.94379890	     14.24141986	     14.24141986	     21.60218087	     -6.24412914	     -0.25805791	     -8.72213059	      6.12684151	      1.92383132	    -14.14223733	    -13.90805583	    -15.32361068	     21.00311754	     47.67101304	      0.00000000	      0.00000000	     15.24236329	    -14.93436121	     -7.49123144	     88.38315734	     47.63426931	      0.00000000	      0.00000000
      8.15828571	     -3.78932470	     -4.09570303	     -1.58860774	      0.93684991	      0.91756379	      0.46029398	     24.86060860	      0.68452064	    -14.56164432	     15.00256912	     15.00256912	     -0.49243750	      2.28582704	     -0.64679003	     -2.91535888	     -4.62395234	    -11.90197224	     14.63528888	     14.63528888	     21.76970163	     -6.51994125	     -0.28749925	     -8.54526682	      6.29247165	      2.17196687	    -13.58009549	    -13.55212787	    -15.27482916	     21.17853175	     47.66169785	      0.00000000	      0.00000000	     14.78170153	    -14.63088271	     -7.34728727	     88.20361217	     47.62083106	      0.00000000	      0.00000000
